<mxfile host="app.diagrams.net" agent="Mozilla/5.0 (Windows NT 10.0; Win64; x64) AppleWebKit/537.36 (KHTML, like Gecko) Chrome/133.0.0.0 Safari/537.36" version="26.0.12">
  <diagram name="Страница — 1" id="u6aRE8_1V5Tih9sA3tie">
    <mxGraphModel dx="2049" dy="2283" grid="1" gridSize="10" guides="1" tooltips="1" connect="1" arrows="1" fold="1" page="1" pageScale="1" pageWidth="827" pageHeight="1169" math="0" shadow="0">
      <root>
        <mxCell id="0" />
        <mxCell id="1" parent="0" />
        <mxCell id="M-w968-UEmcmU-6IBdqY-1" value="" style="rounded=0;whiteSpace=wrap;html=1;" vertex="1" parent="1">
          <mxGeometry x="60" y="-370" width="390" height="1250" as="geometry" />
        </mxCell>
        <mxCell id="M-w968-UEmcmU-6IBdqY-3" value="" style="rounded=0;whiteSpace=wrap;html=1;" vertex="1" parent="1">
          <mxGeometry x="450" y="-370" width="370" height="1250" as="geometry" />
        </mxCell>
        <mxCell id="M-w968-UEmcmU-6IBdqY-4" value="" style="rounded=0;whiteSpace=wrap;html=1;" vertex="1" parent="1">
          <mxGeometry x="820" y="-370" width="390" height="1250" as="geometry" />
        </mxCell>
        <mxCell id="M-w968-UEmcmU-6IBdqY-5" value="" style="endArrow=none;html=1;rounded=0;exitX=0.005;exitY=0.041;exitDx=0;exitDy=0;exitPerimeter=0;entryX=1;entryY=0.04;entryDx=0;entryDy=0;entryPerimeter=0;" edge="1" parent="1" source="M-w968-UEmcmU-6IBdqY-1" target="M-w968-UEmcmU-6IBdqY-4">
          <mxGeometry width="50" height="50" relative="1" as="geometry">
            <mxPoint x="760" y="30" as="sourcePoint" />
            <mxPoint x="810" y="-20" as="targetPoint" />
          </mxGeometry>
        </mxCell>
        <mxCell id="M-w968-UEmcmU-6IBdqY-6" value="user" style="text;html=1;align=center;verticalAlign=middle;whiteSpace=wrap;rounded=0;" vertex="1" parent="1">
          <mxGeometry x="220" y="-360" width="60" height="30" as="geometry" />
        </mxCell>
        <mxCell id="M-w968-UEmcmU-6IBdqY-7" value="Admin" style="text;html=1;align=center;verticalAlign=middle;whiteSpace=wrap;rounded=0;" vertex="1" parent="1">
          <mxGeometry x="600" y="-360" width="60" height="30" as="geometry" />
        </mxCell>
        <mxCell id="M-w968-UEmcmU-6IBdqY-8" value="System" style="text;html=1;align=center;verticalAlign=middle;whiteSpace=wrap;rounded=0;" vertex="1" parent="1">
          <mxGeometry x="1000" y="-360" width="60" height="30" as="geometry" />
        </mxCell>
        <mxCell id="M-w968-UEmcmU-6IBdqY-47" style="edgeStyle=orthogonalEdgeStyle;rounded=0;orthogonalLoop=1;jettySize=auto;html=1;exitX=0.5;exitY=1;exitDx=0;exitDy=0;entryX=0.25;entryY=0;entryDx=0;entryDy=0;" edge="1" parent="1" source="M-w968-UEmcmU-6IBdqY-9" target="M-w968-UEmcmU-6IBdqY-11">
          <mxGeometry relative="1" as="geometry" />
        </mxCell>
        <mxCell id="M-w968-UEmcmU-6IBdqY-9" value="Create&lt;div&gt;login&lt;/div&gt;" style="rounded=1;whiteSpace=wrap;html=1;" vertex="1" parent="1">
          <mxGeometry x="470" y="-10" width="120" height="40" as="geometry" />
        </mxCell>
        <mxCell id="M-w968-UEmcmU-6IBdqY-21" style="edgeStyle=orthogonalEdgeStyle;rounded=0;orthogonalLoop=1;jettySize=auto;html=1;exitX=0.5;exitY=1;exitDx=0;exitDy=0;entryX=1;entryY=0.5;entryDx=0;entryDy=0;" edge="1" parent="1" source="M-w968-UEmcmU-6IBdqY-10">
          <mxGeometry relative="1" as="geometry">
            <mxPoint x="670" y="125" as="targetPoint" />
          </mxGeometry>
        </mxCell>
        <mxCell id="M-w968-UEmcmU-6IBdqY-10" value="Create password" style="rounded=1;whiteSpace=wrap;html=1;" vertex="1" parent="1">
          <mxGeometry x="650" y="-10" width="120" height="40" as="geometry" />
        </mxCell>
        <mxCell id="M-w968-UEmcmU-6IBdqY-66" style="edgeStyle=orthogonalEdgeStyle;rounded=0;orthogonalLoop=1;jettySize=auto;html=1;exitX=1;exitY=0.75;exitDx=0;exitDy=0;entryX=0.5;entryY=0;entryDx=0;entryDy=0;" edge="1" parent="1" source="M-w968-UEmcmU-6IBdqY-11" target="M-w968-UEmcmU-6IBdqY-29">
          <mxGeometry relative="1" as="geometry" />
        </mxCell>
        <mxCell id="M-w968-UEmcmU-6IBdqY-11" value="" style="rounded=0;whiteSpace=wrap;html=1;fillColor=#000000;" vertex="1" parent="1">
          <mxGeometry x="560" y="125" width="120" height="10" as="geometry" />
        </mxCell>
        <mxCell id="M-w968-UEmcmU-6IBdqY-69" value="" style="edgeStyle=orthogonalEdgeStyle;rounded=0;orthogonalLoop=1;jettySize=auto;html=1;" edge="1" parent="1" source="M-w968-UEmcmU-6IBdqY-14" target="M-w968-UEmcmU-6IBdqY-68">
          <mxGeometry relative="1" as="geometry" />
        </mxCell>
        <mxCell id="M-w968-UEmcmU-6IBdqY-14" value="Save AdminData" style="rounded=0;whiteSpace=wrap;html=1;" vertex="1" parent="1">
          <mxGeometry x="1040.5" y="330" width="120" height="60" as="geometry" />
        </mxCell>
        <mxCell id="M-w968-UEmcmU-6IBdqY-48" style="edgeStyle=orthogonalEdgeStyle;rounded=0;orthogonalLoop=1;jettySize=auto;html=1;exitX=0.5;exitY=1;exitDx=0;exitDy=0;entryX=0.5;entryY=0;entryDx=0;entryDy=0;" edge="1" parent="1" source="M-w968-UEmcmU-6IBdqY-29" target="M-w968-UEmcmU-6IBdqY-14">
          <mxGeometry relative="1" as="geometry" />
        </mxCell>
        <mxCell id="M-w968-UEmcmU-6IBdqY-29" value="Shifrovanie Vizhenera" style="rounded=0;whiteSpace=wrap;html=1;" vertex="1" parent="1">
          <mxGeometry x="1040.5" y="220" width="120" height="60" as="geometry" />
        </mxCell>
        <mxCell id="M-w968-UEmcmU-6IBdqY-41" style="edgeStyle=orthogonalEdgeStyle;rounded=0;orthogonalLoop=1;jettySize=auto;html=1;exitX=0;exitY=1;exitDx=0;exitDy=0;entryX=1;entryY=0.25;entryDx=0;entryDy=0;" edge="1" parent="1" source="M-w968-UEmcmU-6IBdqY-32" target="M-w968-UEmcmU-6IBdqY-38">
          <mxGeometry relative="1" as="geometry" />
        </mxCell>
        <mxCell id="M-w968-UEmcmU-6IBdqY-60" style="edgeStyle=orthogonalEdgeStyle;rounded=0;orthogonalLoop=1;jettySize=auto;html=1;exitX=0;exitY=0;exitDx=0;exitDy=0;entryX=0.5;entryY=0;entryDx=0;entryDy=0;" edge="1" parent="1" source="M-w968-UEmcmU-6IBdqY-32" target="M-w968-UEmcmU-6IBdqY-59">
          <mxGeometry relative="1" as="geometry" />
        </mxCell>
        <mxCell id="M-w968-UEmcmU-6IBdqY-32" value="Is that the first regisreation on this server ever?" style="rhombus;whiteSpace=wrap;html=1;" vertex="1" parent="1">
          <mxGeometry x="957.5" y="-140" width="115" height="120" as="geometry" />
        </mxCell>
        <mxCell id="M-w968-UEmcmU-6IBdqY-34" value="" style="ellipse;html=1;shape=startState;fillColor=#000000;strokeColor=#ff0000;" vertex="1" parent="1">
          <mxGeometry x="1000" y="-320" width="30" height="30" as="geometry" />
        </mxCell>
        <mxCell id="M-w968-UEmcmU-6IBdqY-35" value="" style="edgeStyle=orthogonalEdgeStyle;html=1;verticalAlign=bottom;endArrow=open;endSize=8;strokeColor=#ff0000;rounded=0;" edge="1" source="M-w968-UEmcmU-6IBdqY-34" parent="1">
          <mxGeometry relative="1" as="geometry">
            <mxPoint x="1015" y="-230" as="targetPoint" />
          </mxGeometry>
        </mxCell>
        <mxCell id="M-w968-UEmcmU-6IBdqY-37" style="edgeStyle=orthogonalEdgeStyle;rounded=0;orthogonalLoop=1;jettySize=auto;html=1;exitX=0.5;exitY=1;exitDx=0;exitDy=0;entryX=0.5;entryY=0;entryDx=0;entryDy=0;" edge="1" parent="1" source="M-w968-UEmcmU-6IBdqY-36" target="M-w968-UEmcmU-6IBdqY-32">
          <mxGeometry relative="1" as="geometry" />
        </mxCell>
        <mxCell id="M-w968-UEmcmU-6IBdqY-36" value="Check DataBase" style="rounded=0;whiteSpace=wrap;html=1;" vertex="1" parent="1">
          <mxGeometry x="958" y="-230" width="120" height="60" as="geometry" />
        </mxCell>
        <mxCell id="M-w968-UEmcmU-6IBdqY-44" style="edgeStyle=orthogonalEdgeStyle;rounded=0;orthogonalLoop=1;jettySize=auto;html=1;exitX=0.5;exitY=1;exitDx=0;exitDy=0;entryX=0.5;entryY=0;entryDx=0;entryDy=0;" edge="1" parent="1" source="M-w968-UEmcmU-6IBdqY-38" target="M-w968-UEmcmU-6IBdqY-9">
          <mxGeometry relative="1" as="geometry" />
        </mxCell>
        <mxCell id="M-w968-UEmcmU-6IBdqY-45" style="edgeStyle=orthogonalEdgeStyle;rounded=0;orthogonalLoop=1;jettySize=auto;html=1;exitX=0.5;exitY=1;exitDx=0;exitDy=0;entryX=0.5;entryY=0;entryDx=0;entryDy=0;" edge="1" parent="1" source="M-w968-UEmcmU-6IBdqY-38" target="M-w968-UEmcmU-6IBdqY-10">
          <mxGeometry relative="1" as="geometry">
            <Array as="points">
              <mxPoint x="610" y="-20" />
              <mxPoint x="710" y="-20" />
            </Array>
          </mxGeometry>
        </mxCell>
        <mxCell id="M-w968-UEmcmU-6IBdqY-38" value="" style="rounded=0;whiteSpace=wrap;html=1;fillColor=#000000;" vertex="1" parent="1">
          <mxGeometry x="550" y="-50" width="120" height="10" as="geometry" />
        </mxCell>
        <mxCell id="M-w968-UEmcmU-6IBdqY-42" value="+" style="text;html=1;align=center;verticalAlign=middle;whiteSpace=wrap;rounded=0;" vertex="1" parent="1">
          <mxGeometry x="897.5" y="-80" width="60" height="30" as="geometry" />
        </mxCell>
        <mxCell id="M-w968-UEmcmU-6IBdqY-46" style="edgeStyle=orthogonalEdgeStyle;rounded=0;orthogonalLoop=1;jettySize=auto;html=1;exitX=0.5;exitY=0;exitDx=0;exitDy=0;entryX=0.5;entryY=1;entryDx=0;entryDy=0;" edge="1" parent="1" source="M-w968-UEmcmU-6IBdqY-11" target="M-w968-UEmcmU-6IBdqY-11">
          <mxGeometry relative="1" as="geometry" />
        </mxCell>
        <mxCell id="M-w968-UEmcmU-6IBdqY-49" style="edgeStyle=orthogonalEdgeStyle;rounded=0;orthogonalLoop=1;jettySize=auto;html=1;exitX=0.5;exitY=1;exitDx=0;exitDy=0;entryX=0.5;entryY=0;entryDx=0;entryDy=0;" edge="1" parent="1" source="M-w968-UEmcmU-6IBdqY-50" target="M-w968-UEmcmU-6IBdqY-55">
          <mxGeometry relative="1" as="geometry" />
        </mxCell>
        <mxCell id="M-w968-UEmcmU-6IBdqY-50" value="Create&lt;div&gt;login&lt;/div&gt;" style="rounded=1;whiteSpace=wrap;html=1;" vertex="1" parent="1">
          <mxGeometry x="100" y="-10" width="120" height="40" as="geometry" />
        </mxCell>
        <mxCell id="M-w968-UEmcmU-6IBdqY-51" style="edgeStyle=orthogonalEdgeStyle;rounded=0;orthogonalLoop=1;jettySize=auto;html=1;exitX=0.5;exitY=1;exitDx=0;exitDy=0;entryX=1;entryY=0.5;entryDx=0;entryDy=0;" edge="1" parent="1" source="M-w968-UEmcmU-6IBdqY-52">
          <mxGeometry relative="1" as="geometry">
            <mxPoint x="300" y="125" as="targetPoint" />
          </mxGeometry>
        </mxCell>
        <mxCell id="M-w968-UEmcmU-6IBdqY-52" value="Create password" style="rounded=1;whiteSpace=wrap;html=1;" vertex="1" parent="1">
          <mxGeometry x="280" y="-10" width="120" height="40" as="geometry" />
        </mxCell>
        <mxCell id="M-w968-UEmcmU-6IBdqY-67" style="edgeStyle=orthogonalEdgeStyle;rounded=0;orthogonalLoop=1;jettySize=auto;html=1;exitX=0.5;exitY=1;exitDx=0;exitDy=0;entryX=0.5;entryY=0;entryDx=0;entryDy=0;" edge="1" parent="1" source="M-w968-UEmcmU-6IBdqY-53" target="M-w968-UEmcmU-6IBdqY-63">
          <mxGeometry relative="1" as="geometry" />
        </mxCell>
        <mxCell id="M-w968-UEmcmU-6IBdqY-53" value="" style="rounded=0;whiteSpace=wrap;html=1;fillColor=#000000;" vertex="1" parent="1">
          <mxGeometry x="200" y="125" width="120" height="10" as="geometry" />
        </mxCell>
        <mxCell id="M-w968-UEmcmU-6IBdqY-54" style="edgeStyle=orthogonalEdgeStyle;rounded=0;orthogonalLoop=1;jettySize=auto;html=1;exitX=0;exitY=0.5;exitDx=0;exitDy=0;entryX=0;entryY=0.5;entryDx=0;entryDy=0;" edge="1" parent="1" source="M-w968-UEmcmU-6IBdqY-55" target="M-w968-UEmcmU-6IBdqY-50">
          <mxGeometry relative="1" as="geometry">
            <Array as="points">
              <mxPoint x="90" y="80" />
              <mxPoint x="90" y="10" />
            </Array>
          </mxGeometry>
        </mxCell>
        <mxCell id="M-w968-UEmcmU-6IBdqY-55" value="does the login used" style="rhombus;whiteSpace=wrap;html=1;" vertex="1" parent="1">
          <mxGeometry x="120" y="55" width="80" height="60" as="geometry" />
        </mxCell>
        <mxCell id="M-w968-UEmcmU-6IBdqY-56" style="edgeStyle=orthogonalEdgeStyle;rounded=0;orthogonalLoop=1;jettySize=auto;html=1;exitX=1;exitY=0.5;exitDx=0;exitDy=0;entryX=0.383;entryY=0.1;entryDx=0;entryDy=0;entryPerimeter=0;" edge="1" parent="1" source="M-w968-UEmcmU-6IBdqY-55">
          <mxGeometry relative="1" as="geometry">
            <mxPoint x="225.96000000000004" y="121" as="targetPoint" />
          </mxGeometry>
        </mxCell>
        <mxCell id="M-w968-UEmcmU-6IBdqY-57" value="+" style="text;html=1;align=center;verticalAlign=middle;whiteSpace=wrap;rounded=0;" vertex="1" parent="1">
          <mxGeometry x="210" y="60" width="60" height="30" as="geometry" />
        </mxCell>
        <mxCell id="M-w968-UEmcmU-6IBdqY-58" value="-" style="text;html=1;align=center;verticalAlign=middle;whiteSpace=wrap;rounded=0;" vertex="1" parent="1">
          <mxGeometry x="80" y="30" width="60" height="30" as="geometry" />
        </mxCell>
        <mxCell id="M-w968-UEmcmU-6IBdqY-59" value="" style="rounded=0;whiteSpace=wrap;html=1;fillColor=#000000;" vertex="1" parent="1">
          <mxGeometry x="190" y="-50" width="120" height="10" as="geometry" />
        </mxCell>
        <mxCell id="M-w968-UEmcmU-6IBdqY-61" value="-" style="text;html=1;align=center;verticalAlign=middle;whiteSpace=wrap;rounded=0;" vertex="1" parent="1">
          <mxGeometry x="898" y="-140" width="60" height="30" as="geometry" />
        </mxCell>
        <mxCell id="M-w968-UEmcmU-6IBdqY-65" style="edgeStyle=orthogonalEdgeStyle;rounded=0;orthogonalLoop=1;jettySize=auto;html=1;exitX=0.5;exitY=1;exitDx=0;exitDy=0;entryX=0.5;entryY=0;entryDx=0;entryDy=0;" edge="1" parent="1" source="M-w968-UEmcmU-6IBdqY-63" target="M-w968-UEmcmU-6IBdqY-64">
          <mxGeometry relative="1" as="geometry" />
        </mxCell>
        <mxCell id="M-w968-UEmcmU-6IBdqY-63" value="Shifrovanie Vizhenera" style="rounded=0;whiteSpace=wrap;html=1;" vertex="1" parent="1">
          <mxGeometry x="860" y="220" width="120" height="60" as="geometry" />
        </mxCell>
        <mxCell id="M-w968-UEmcmU-6IBdqY-70" style="edgeStyle=orthogonalEdgeStyle;rounded=0;orthogonalLoop=1;jettySize=auto;html=1;exitX=0.5;exitY=1;exitDx=0;exitDy=0;entryX=0.5;entryY=0;entryDx=0;entryDy=0;" edge="1" parent="1" source="M-w968-UEmcmU-6IBdqY-64" target="M-w968-UEmcmU-6IBdqY-68">
          <mxGeometry relative="1" as="geometry" />
        </mxCell>
        <mxCell id="M-w968-UEmcmU-6IBdqY-64" value="Save UserData" style="rounded=0;whiteSpace=wrap;html=1;" vertex="1" parent="1">
          <mxGeometry x="860" y="330" width="120" height="60" as="geometry" />
        </mxCell>
        <mxCell id="M-w968-UEmcmU-6IBdqY-72" style="edgeStyle=orthogonalEdgeStyle;rounded=0;orthogonalLoop=1;jettySize=auto;html=1;exitX=0.5;exitY=1;exitDx=0;exitDy=0;entryX=0.5;entryY=0;entryDx=0;entryDy=0;" edge="1" parent="1" source="M-w968-UEmcmU-6IBdqY-68" target="M-w968-UEmcmU-6IBdqY-71">
          <mxGeometry relative="1" as="geometry" />
        </mxCell>
        <mxCell id="M-w968-UEmcmU-6IBdqY-68" value="" style="rounded=0;whiteSpace=wrap;html=1;fillColor=#000000;" vertex="1" parent="1">
          <mxGeometry x="955" y="430" width="120" height="10" as="geometry" />
        </mxCell>
        <mxCell id="M-w968-UEmcmU-6IBdqY-71" value="" style="ellipse;html=1;shape=endState;fillColor=#000000;strokeColor=#ff0000;" vertex="1" parent="1">
          <mxGeometry x="1003" y="500" width="30" height="30" as="geometry" />
        </mxCell>
      </root>
    </mxGraphModel>
  </diagram>
</mxfile>
